<svg xmlns="http://www.w3.org/2000/svg" xmlns:xlink="http://www.w3.org/1999/xlink" viewBox="0,0,256,256" width="24px" height="24px" fill-rule="nonzero"><g fill="#98a2b3" fill-rule="nonzero" stroke="none" stroke-width="1" stroke-linecap="butt" stroke-linejoin="miter" stroke-miterlimit="10" stroke-dasharray="" stroke-dashoffset="0" font-family="none" font-weight="none" font-size="none" text-anchor="none" style="mix-blend-mode: normal"><g transform="scale(10.66667,10.66667)"><path d="M11.94141,2c-1.50135,0 -2.92162,0.34128 -4.20117,0.9375c-0.00839,-0.00245 -0.017,-0.00538 -0.02539,-0.00781l-0.00781,0.02539c-3.39905,1.59944 -5.76562,5.04858 -5.76562,9.04492c0,5.511 4.48899,10 10,10c5.51101,0 10,-4.489 10,-10c0,-5.511 -4.48899,-10 -10,-10zM11.94141,4c1.71643,0 3.21506,0.65418 4.51563,1.56836c-0.63158,0.62762 -1.36711,1.18275 -2.17773,1.63477c-1.06128,-1.2799 -2.35273,-2.29902 -3.71094,-3.0625c0.44505,-0.08275 0.89909,-0.14062 1.37305,-0.14062zM7.97656,5.14453c1.54962,0.58307 3.10645,1.53976 4.35938,2.88672c-2.08021,0.63168 -4.46322,0.59348 -6.85547,-0.50586c0.66403,-0.95775 1.51295,-1.77138 2.49609,-2.38086zM17.95508,6.86328c0.85758,1.00527 1.3963,2.22368 1.67188,3.57031c-1.12288,-0.1382 -2.26828,-0.07285 -3.39062,0.1543c-0.22799,-0.61692 -0.50552,-1.19983 -0.82227,-1.74805c0.94352,-0.5571 1.80217,-1.22555 2.54102,-1.97656zM4.4707,9.37109c3.17969,1.52219 6.40425,1.41226 9.14258,0.34766c0.26914,0.45082 0.50501,0.9285 0.70117,1.43555c-3.13363,1.22551 -5.82938,3.80527 -6.89844,7.27344c-2.05184,-1.44588 -3.47461,-3.71743 -3.47461,-6.42773c0,-0.93352 0.23762,-1.79713 0.5293,-2.62891zM17.80078,12.38672c0.68554,-0.01235 1.35427,0.10557 2.01758,0.22266c-0.20019,2.53792 -1.5423,4.74561 -3.52344,6.07227c0.46032,-1.32835 0.81518,-3.07625 0.60547,-5.20703c-0.03181,-0.32276 -0.08104,-0.63629 -0.13672,-0.94531c0.11562,-0.02343 0.22986,-0.06313 0.3457,-0.08203c0.23275,-0.03797 0.46289,-0.05643 0.69141,-0.06055zM14.83203,13.13477c0.02753,0.17804 0.06006,0.35378 0.07813,0.53711c0.33768,3.43105 -0.85487,5.48539 -1.31836,6.15039c-0.53131,0.11288 -1.08195,0.17773 -1.65039,0.17773c-0.97299,0 -1.87894,-0.23508 -2.74023,-0.55078c0.76032,-2.94412 3.01789,-5.18965 5.63086,-6.31445z"></path></g></g></svg>